<svg version="1.1" xmlns="http://www.w3.org/2000/svg" xmlns:xlink="http://www.w3.org/1999/xlink" x="0px" y="0px" width="32px" height="32px" viewBox="0 0 32 32" enable-background="new 0 0 32 32" xml:space="preserve">

		<path fill="none" stroke="#414042" stroke-width="2" stroke-miterlimit="10" d="M22,14c-4.972,0-9,5.371-9,12
			c0-6.629-4.028-12-9-12c4.972,0,9-5.371,9-12C13,8.629,17.028,14,22,14z"/>
			<path fill="none" stroke="#414042" stroke-width="2" stroke-miterlimit="10" d="M29,24c-2.763,0-5,2.686-5,6c0-3.314-2.238-6-5-6
				c2.762,0,5-2.686,5-6C24,21.314,26.237,24,29,24z"/>
				<line fill="none" stroke="#414042" stroke-width="2" stroke-miterlimit="10" x1="4" y1="14" x2="3" y2="14"/>
				<line fill="none" stroke="#414042" stroke-width="2" stroke-miterlimit="10" x1="23" y1="14" x2="22" y2="14"/>

		</svg>
