<?xml version="1.0" encoding="utf-8"?>
<!-- Generator: Adobe Illustrator 16.0.5, SVG Export Plug-In . SVG Version: 6.00 Build 0)  -->
<!DOCTYPE svg PUBLIC "-//W3C//DTD SVG 1.1//EN" "http://www.w3.org/Graphics/SVG/1.1/DTD/svg11.dtd">
<svg version="1.1" xmlns="http://www.w3.org/2000/svg" xmlns:xlink="http://www.w3.org/1999/xlink" x="0px" y="0px" width="32px"
	 height="32px" viewBox="0 0 32 32" enable-background="new 0 0 32 32" xml:space="preserve">
			<path vector-effect="non-scaling-stroke" fill="none" stroke="#414042" stroke-width="2" stroke-miterlimit="10" d="M19.505,18
				h5.854C28.475,18,31,15.795,31,12.885c0-2.909-2.525-5.192-5.641-5.192c-0.322,0-0.638,0.07-0.946,0.118
				c-1.276-2.838-4.278-4.812-7.782-4.812c-4.611,0-8.352,3.464-8.433,7.753c-0.753-0.531-1.687-0.846-2.705-0.846
				C3.011,9.906,1,11.635,1,13.953S3.011,18,5.493,18h8.27H19.505z"/>
			
				<line vector-effect="non-scaling-stroke" fill="none" stroke="#414042" stroke-width="2" stroke-miterlimit="10" x1="9" y1="22" x2="5" y2="29"/>
			<path vector-effect="non-scaling-stroke" fill="none" stroke="#414042" stroke-width="2" stroke-miterlimit="10" d="M19.75,28"/>
			<path vector-effect="non-scaling-stroke" fill="none" stroke="#414042" stroke-width="2" stroke-miterlimit="10" d="M12.25,28"/>
			<path vector-effect="non-scaling-stroke" fill="none" stroke="#414042" stroke-width="2" stroke-miterlimit="10" d="M16,21.75"/>
			
				<line vector-effect="non-scaling-stroke" fill="none" stroke="#414042" stroke-width="2" stroke-miterlimit="10" x1="16" y1="22" x2="12" y2="29"/>
			
				<line vector-effect="non-scaling-stroke" fill="none" stroke="#414042" stroke-width="2" stroke-miterlimit="10" x1="23" y1="22" x2="19" y2="29"/>
</svg>
